<?xml version="1.0" standalone="no"?>
<!DOCTYPE svg PUBLIC "-//W3C//DTD SVG 20010904//EN"
 "http://www.w3.org/TR/2001/REC-SVG-20010904/DTD/svg10.dtd">
<svg version="1.0" xmlns="http://www.w3.org/2000/svg"
 width="512.000000pt" height="512.000000pt" viewBox="0 0 512.000000 512.000000"
 preserveAspectRatio="xMidYMid meet">
<metadata>
Created by potrace 1.14, written by Peter Selinger 2001-2017
</metadata>
<g transform="translate(0.000000,512.000000) scale(0.100000,-0.100000)"
fill="#000000" stroke="none">
<path d="M2853 5077 c-41 -23 -704 -669 -868 -845 -531 -574 -949 -1142 -1325
-1803 -88 -155 -103 -188 -103 -226 0 -52 24 -90 74 -115 31 -17 82 -18 622
-18 l587 0 0 -970 c0 -1069 -3 -1020 62 -1060 37 -22 98 -26 131 -8 38 19 433
388 613 570 513 520 947 1073 1326 1688 151 245 319 547 325 583 7 46 -19 102
-59 127 -32 19 -49 20 -610 20 l-578 0 0 975 c0 1067 3 1016 -59 1068 -36 30
-98 36 -138 14z m590 -2255 c328 -1 597 -5 597 -8 0 -11 -140 -254 -238 -414
-446 -725 -984 -1379 -1617 -1965 l-140 -129 -3 982 -2 982 -620 0 -619 0 21
38 c185 325 440 717 650 997 346 461 637 786 1106 1237 l257 246 5 -981 5
-982 598 -3z"/>
</g>
</svg>
